# xmcd
#
# Track frame offsets:
#	150
#	14307
#	32593
#	51358
#	68364
#	86913
#	104276
#	122931
#	140791
#	158123
#	179325
#	196223
#	213627
#	233106
#	250798
#	272157
#
# Disc length: 3966 seconds
#
# Revision: 0
# Processed by: cddbd v1.5.1PL2 Copyright (c) Steve Scherf et al.
# Submitted via: audiograbber 1.83.01
#
DISCID=e50f7c10
DTITLE=Varios - Anos 80
DYEAR=1900
DGENRE=rock
TTITLE0=Eternal Flame 
TTITLE1=Holding Back The Years 
TTITLE2=Eyes Withou A Face
TTITLE3=Don T Worry Be Happy
TTITLE4=Sittin On The Dock Of The Bay 
TTITLE5=The Final Countdown
TTITLE6=Sara
TTITLE7=Lonely Is The Night
TTITLE8=Drive
TTITLE9=Greatest Love Of All
TTITLE10=Don T Get Me Wrong 
TTITLE11=West End Girls
TTITLE12=Do What You Do
TTITLE13=The Lady In Red
TTITLE14=Nikita 
TTITLE15=We Are The World , Usa For Africa
EXTD=
EXTT0=
EXTT1=
EXTT2=
EXTT3=
EXTT4=
EXTT5=
EXTT6=
EXTT7=
EXTT8=
EXTT9=
EXTT10=
EXTT11=
EXTT12=
EXTT13=
EXTT14=
EXTT15=
PLAYORDER=
